HIERARCHY
ROOT Hips
{
	OFFSET 0.000000 0.000000 0.000000
	CHANNELS 6 Xposition Yposition Zposition Zrotation Yrotation Xrotation 
	JOINT LHipJoint
	{
		OFFSET 0.000000 0.000000 0.000000
		CHANNELS 3 Zrotation Yrotation Xrotation
		JOINT LeftUpLeg
		{
			OFFSET 1.363060 -1.794630 0.839290
			CHANNELS 3 Zrotation Yrotation Xrotation
			JOINT LeftLeg
			{
				OFFSET 2.448110 -6.726130 0.000000
				CHANNELS 3 Zrotation Yrotation Xrotation
				JOINT LeftFoot
				{
					OFFSET 2.562200 -7.039590 0.000000
					CHANNELS 3 Zrotation Yrotation Xrotation
					JOINT LeftToeBase
					{
						OFFSET 0.157640 -0.433110 2.322550
						CHANNELS 3 Zrotation Yrotation Xrotation
						End Site
						{
							OFFSET 0.000000 0.000000 0.000000
						}
					}
				}
			}
		}
	}
	JOINT RHipJoint
	{
		OFFSET 0.000000 0.000000 0.000000
		CHANNELS 3 Zrotation Yrotation Xrotation
		JOINT RightUpLeg
		{
			OFFSET -1.305520 -1.794630 0.839290
			CHANNELS 3 Zrotation Yrotation Xrotation
			JOINT RightLeg
			{
				OFFSET -2.542530 -6.985550 0.000000
				CHANNELS 3 Zrotation Yrotation Xrotation
				JOINT RightFoot
				{
					OFFSET -2.568260 -7.056230 0.000000
					CHANNELS 3 Zrotation Yrotation Xrotation
					JOINT RightToeBase
					{
						OFFSET -0.164730 -0.452590 2.363150
						CHANNELS 3 Zrotation Yrotation Xrotation
						End Site
						{
							OFFSET 0.000000 0.000000 0.000000
						}
					}
				}
			}
		}
	}
	JOINT LowerBack
	{
		OFFSET 0.000000 0.000000 0.000000
		CHANNELS 3 Zrotation Yrotation Xrotation
		JOINT Spine
		{
			OFFSET 0.028270 2.035590 -0.193380
			CHANNELS 3 Zrotation Yrotation Xrotation
			JOINT Spine1
			{
				OFFSET 0.056720 2.048850 -0.042750
				CHANNELS 3 Zrotation Yrotation Xrotation
				JOINT Neck
				{
					OFFSET 0.000000 0.000000 0.000000
					CHANNELS 3 Zrotation Yrotation Xrotation
					JOINT Neck1
					{
						OFFSET -0.054170 1.746240 0.172020
						CHANNELS 3 Zrotation Yrotation Xrotation
						JOINT Head
						{
							OFFSET 0.104070 1.761360 -0.123970
							CHANNELS 3 Zrotation Yrotation Xrotation
							End Site
							{
								OFFSET 0.000000 0.000000 0.000000
							}
						}
					}
				}
				JOINT LeftShoulder
				{
					OFFSET 0.000000 0.000000 0.000000
					CHANNELS 3 Zrotation Yrotation Xrotation
					JOINT LeftArm
					{
						OFFSET 3.362410 1.200890 -0.311210
						CHANNELS 3 Zrotation Yrotation Xrotation
						JOINT LeftForeArm
						{
							OFFSET 4.983000 -0.000000 -0.000000
							CHANNELS 3 Zrotation Yrotation Xrotation
							JOINT LeftHand
							{
								OFFSET 3.483560 -0.000000 -0.000000
								CHANNELS 3 Zrotation Yrotation Xrotation
								JOINT LeftFingerBase
								{
									OFFSET 0.000000 0.000000 0.000000
									CHANNELS 3 Zrotation Yrotation Xrotation
									JOINT LeftHandIndex1
									{
										OFFSET 0.715260 -0.000000 -0.000000
										CHANNELS 3 Zrotation Yrotation Xrotation
										End Site
										{
											OFFSET 0.000000 0.000000 0.000000
										}
									}
								}
								JOINT LThumb
								{
									OFFSET 0.000000 0.000000 0.000000
									CHANNELS 3 Zrotation Yrotation Xrotation
									End Site
									{
										OFFSET 0.000000 0.000000 0.000000
									}
								}
							}
						}
					}
				}
				JOINT RightShoulder
				{
					OFFSET 0.000000 0.000000 0.000000
					CHANNELS 3 Zrotation Yrotation Xrotation
					JOINT RightArm
					{
						OFFSET -3.136600 1.374050 -0.404650
						CHANNELS 3 Zrotation Yrotation Xrotation
						JOINT RightForeArm
						{
							OFFSET -5.241900 -0.000000 -0.000000
							CHANNELS 3 Zrotation Yrotation Xrotation
							JOINT RightHand
							{
								OFFSET -3.444170 -0.000000 -0.000000
								CHANNELS 3 Zrotation Yrotation Xrotation
								JOINT RightFingerBase
								{
									OFFSET 0.000000 0.000000 0.000000
									CHANNELS 3 Zrotation Yrotation Xrotation
									JOINT RightHandIndex1
									{
										OFFSET -0.622530 -0.000000 -0.000000
										CHANNELS 3 Zrotation Yrotation Xrotation
										End Site
										{
											OFFSET 0.000000 0.000000 0.000000
										}
									}
								}
								JOINT RThumb
								{
									OFFSET 0.000000 0.000000 0.000000
									CHANNELS 3 Zrotation Yrotation Xrotation
									End Site
									{
										OFFSET 0.000000 0.000000 0.000000
									}
								}
							}
						}
					}
				}
			}
		}
	}
}
MOTION
Frames: 10
Frame Time: 0.008333
15.184510 17.872038 17.144401 -141.543166 -81.846335 143.306806 0.054221 0.014309 -0.011274 -15.471989 -0.335102 -7.031531 2.420562 9.656112 27.887497 1.196901 -3.794539 -19.831205 0.188400 2.795700 7.710600 -0.058081 -0.013690 -0.006397 24.307223 7.263964 -5.834633 -2.550947 -9.893290 28.651045 -0.851211 -3.624802 -19.053790 -0.073400 -1.747600 4.808700 0.807755 2.101276 3.850207 1.818107 2.869841 -0.303555 1.223167 1.426946 -2.573841 -4.038228 -2.139477 -8.902557 3.297687 -2.779538 10.992574 1.490500 -1.341400 4.856500 0.001708 0.006982 0.001637 -88.504372 1.771148 21.055338 14.426403 -23.327680 -2.987108 0.004063 -0.000199 0.126692 14.636763 -7.567355 -1.969200 -7.125000 0.000000 0.000000 -8.867000 22.192300 4.918600 -0.006991 -0.005946 0.000780 88.883512 1.454023 17.161668 -11.779091 19.463000 -2.022601 -0.005797 -0.014215 -8.900901 -16.353327 -22.708128 6.456000 7.125000 0.000000 0.000000 13.111400 -53.052900 -2.633500 
15.186109 17.865041 17.148100 -140.919244 -81.687470 142.779866 0.054286 0.014447 -0.011068 -15.325395 -0.523519 -7.098682 2.431720 9.676770 27.953715 1.195923 -3.725155 -19.832186 0.245100 3.185800 8.796300 -0.057477 -0.014592 -0.006703 24.095788 5.264046 -6.944889 -2.585824 -9.956223 28.854525 -0.879287 -1.816591 -18.435053 -0.041900 -1.321100 3.632700 1.022274 2.180285 3.771770 1.817094 2.983576 -0.335695 1.098026 1.480417 -2.553120 -3.974412 -2.174573 -8.803159 3.324008 -2.840942 10.914159 1.484900 -1.368100 4.817500 0.001710 0.006946 0.001632 -88.426445 1.761842 21.273138 14.396989 -23.285913 -2.975506 0.004039 -0.000199 0.077794 14.556539 -7.591160 -1.964100 -7.125000 0.000000 0.000000 -8.924200 22.171200 4.955400 -0.006958 -0.005910 0.000805 88.857994 1.422526 17.334431 -11.853564 19.575119 -2.047402 -0.005836 -0.014277 -9.336402 -16.659375 -22.729605 6.588600 7.125000 0.000000 0.000000 12.816900 -53.129400 -2.597000 
15.190208 17.864141 17.146401 -142.131100 -81.734917 143.990903 0.054239 0.014439 -0.011192 -15.491367 -0.358467 -7.166392 2.428987 9.671763 27.937611 1.192440 -3.758717 -19.797153 0.246000 3.191700 8.812800 -0.057914 -0.014102 -0.006316 24.155000 6.740198 -6.376760 -2.597413 -9.976586 28.920389 -0.873791 -2.943575 -18.916380 -0.066800 -1.668000 4.589000 0.758700 2.230881 3.780344 1.804980 3.039663 -0.323696 1.229212 1.512451 -2.559731 -3.982464 -2.195769 -8.873387 3.278985 -2.862524 10.996574 1.470000 -1.381300 4.854900 0.001696 0.007005 0.001647 -88.467069 1.722377 21.348641 14.394975 -23.282984 -2.974703 0.004028 -0.000206 0.057397 14.536328 -7.597269 -1.962800 -7.125000 0.000000 0.000000 -8.938600 22.165800 4.964800 -0.007016 -0.005953 0.000812 88.748428 1.519584 17.321453 -11.846859 19.565057 -2.045191 -0.005626 -0.014327 -9.562491 -16.287828 -22.756974 6.441800 7.125000 0.000000 0.000000 13.197900 -53.089600 -2.663300 
15.195306 17.866040 17.143202 -143.408013 -81.698379 145.242907 0.054142 0.014491 -0.011242 -15.602894 -0.137329 -7.260517 2.436737 9.686268 27.983856 1.188374 -3.725472 -19.767352 0.226600 3.064200 8.457600 -0.058098 -0.013939 -0.006186 24.097910 7.238966 -6.231733 -2.607387 -9.994350 28.977911 -0.868165 -3.307619 -19.051094 -0.073900 -1.753200 4.824000 0.514950 2.254903 3.842874 1.815266 3.062787 -0.329134 1.371489 1.527807 -2.614275 -4.069435 -2.174670 -8.890993 3.288656 -2.824529 11.059034 1.489600 -1.365800 4.877000 0.001659 0.007051 0.001675 -88.530386 1.762209 21.270231 14.423994 -23.324108 -2.986103 0.004017 -0.000194 0.037397 14.522117 -7.578760 -1.956100 -7.125000 0.000000 0.000000 -8.949700 22.185200 4.967000 -0.007031 -0.005969 0.000846 88.676307 1.511844 17.371144 -11.877539 19.611305 -2.055510 -0.005803 -0.014214 -9.590210 -16.657390 -22.484719 6.521000 7.125000 0.000000 0.000000 12.713600 -52.885300 -2.498900 
15.198305 17.864041 17.145401 -142.602075 -81.527630 144.331839 0.054052 0.014398 -0.011326 -15.396821 -0.092817 -7.174262 2.445698 9.702884 28.037192 1.183544 -3.622419 -19.739897 0.214100 2.979100 8.220600 -0.057933 -0.013971 -0.006235 24.291855 6.951953 -6.244604 -2.603117 -9.986801 28.953560 -0.848360 -3.424408 -18.915823 -0.025700 -1.034900 2.844700 0.722315 2.225623 3.981142 1.844507 3.035098 -0.314390 1.281744 1.510398 -2.667018 -3.961205 -2.126374 -8.848919 3.228125 -2.768600 11.053403 1.457600 -1.338300 4.863700 0.001612 0.007076 0.001646 -88.520939 1.774894 20.991850 14.406219 -23.298956 -2.979091 0.003946 -0.000239 0.230709 14.381247 -7.657694 -1.956300 -7.125000 0.000000 0.000000 -9.048500 22.110300 5.038900 -0.007056 -0.005962 0.000859 88.745932 1.443650 17.560220 -11.926506 19.684916 -2.071937 -0.006170 -0.014039 -9.433637 -17.371788 -22.161884 6.723400 7.125000 0.000000 0.000000 11.870700 -52.690100 -2.272200 
15.198005 17.864041 17.148600 -141.930169 -81.613619 143.581795 0.054035 0.014391 -0.011167 -15.378167 -0.259217 -7.104124 2.463731 9.736283 28.144344 1.178156 -3.655194 -19.688447 0.229100 3.080800 8.503700 -0.057767 -0.014035 -0.006442 24.289265 6.524184 -6.266957 -2.595045 -9.972545 28.907176 -0.838010 -3.290877 -18.738955 -0.009400 -0.624400 1.715900 0.741186 2.141320 4.026638 1.835115 2.923268 -0.285312 1.267920 1.454294 -2.659495 -3.789469 -2.095465 -8.824914 3.114361 -2.736939 11.041794 1.396900 -1.323100 4.851000 0.001591 0.007090 0.001604 -88.518722 1.767852 20.722351 14.397769 -23.287092 -2.975780 0.003883 -0.000279 0.444720 14.266885 -7.722923 -1.956500 -7.125000 0.000000 0.000000 -9.128700 22.048400 5.097700 -0.007082 -0.005951 0.000830 88.807557 1.479169 17.730041 -11.929177 19.689014 -2.072826 -0.005971 -0.014126 -9.571526 -17.017836 -22.309094 6.620400 7.125000 0.000000 0.000000 12.282400 -52.774400 -2.378500 
15.199504 17.864641 17.154198 -140.748228 -81.634966 142.338766 0.054063 0.014363 -0.011027 -15.290301 -0.540922 -7.014541 2.481600 9.769011 28.249455 1.177612 -3.506247 -19.705446 0.243000 3.172000 8.757900 -0.057642 -0.014015 -0.006529 24.390327 6.350599 -6.213862 -2.585898 -9.956204 28.854526 -0.841203 -3.044709 -18.641387 -0.025700 -1.035400 2.846100 0.926175 2.113706 4.090159 1.864292 2.895236 -0.242505 1.194424 1.437166 -2.643522 -3.905894 -2.154282 -8.944235 3.171298 -2.805790 11.145298 1.427400 -1.357100 4.907800 0.001606 0.007105 0.001604 -88.538346 1.748770 20.805270 14.417925 -23.315625 -2.983682 0.003891 -0.000272 0.440918 14.297893 -7.712416 -1.958300 -7.125000 0.000000 0.000000 -9.106700 22.057900 5.083100 -0.007072 -0.006016 0.000816 88.797351 1.550757 17.564136 -11.949605 19.719762 -2.079727 -0.005951 -0.014050 -9.636827 -16.973819 -22.146021 6.556900 7.125000 0.000000 0.000000 12.258200 -52.603700 -2.322000 
15.204902 17.869439 17.159196 -140.112137 -81.445067 141.780826 0.054085 0.014405 -0.011014 -15.123612 -0.648807 -7.101973 2.492943 9.789788 28.316233 1.184765 -3.213414 -19.812006 0.223500 3.043000 8.398400 -0.057681 -0.014058 -0.006425 24.546074 6.418917 -6.308738 -2.579507 -9.944808 28.817504 -0.858774 -2.634081 -18.611346 -0.064800 -1.642000 4.517300 1.206611 2.169194 4.087208 1.902063 2.982747 -0.255726 1.070273 1.476321 -2.644577 -4.130024 -2.238610 -9.063201 3.302572 -2.902988 11.245462 1.496200 -1.404800 4.967300 0.001634 0.007101 0.001656 -88.543904 1.729943 21.053498 14.426538 -23.327929 -2.987189 0.003935 -0.000252 0.278711 14.383536 -7.692804 -1.965500 -7.125000 0.000000 0.000000 -9.045500 22.074500 5.044600 -0.007034 -0.006087 0.000857 88.744181 1.571804 17.418002 -11.980764 19.766487 -2.090239 -0.006062 -0.013886 -9.505439 -17.118672 -21.855462 6.534000 7.125000 0.000000 0.000000 11.996500 -52.338400 -2.192700 
15.211300 17.878236 17.160196 -141.627987 -81.357765 143.435932 0.054048 0.014602 -0.010909 -15.261459 -0.541927 -7.350626 2.503749 9.809633 28.379901 1.189015 -3.188735 -19.852746 0.226500 3.063100 8.454500 -0.057898 -0.014226 -0.006470 24.341294 6.354681 -6.570630 -2.575153 -9.936933 28.792284 -0.872342 -2.136206 -18.509734 -0.082700 -1.855300 5.105800 1.066020 2.228888 4.033752 1.840355 3.055964 -0.321816 1.082053 1.515018 -2.686637 -4.124287 -2.216309 -9.067310 3.335267 -2.880010 11.303623 1.507000 -1.391600 4.985300 0.001681 0.007094 0.001741 -88.477866 1.813109 21.268757 14.473759 -23.394714 -3.005903 0.003994 -0.000189 -0.053303 14.479593 -7.630460 -1.963300 -7.125000 0.000000 0.000000 -8.978500 22.134200 4.994000 -0.006943 -0.006087 0.000923 88.721421 1.547221 17.731102 -11.990468 19.780941 -2.093526 -0.005849 -0.013975 -9.646726 -16.731507 -22.006678 6.420300 7.125000 0.000000 0.000000 12.440100 -52.422000 -2.301500 
15.218997 17.879835 17.163394 -141.901004 -81.377541 143.667946 0.053934 0.014633 -0.010895 -15.278715 -0.323246 -7.467234 2.512989 9.826515 28.434312 1.170876 -3.507727 -19.647423 0.258700 3.272500 9.038300 -0.057906 -0.014316 -0.006574 24.259910 6.151917 -6.643634 -2.573832 -9.934523 28.784249 -0.865937 -2.018611 -18.390714 -0.079400 -1.818000 5.003000 1.078828 2.230668 4.183344 1.754978 3.061323 -0.337306 0.981597 1.516878 -2.781340 -3.924109 -2.189008 -9.096677 3.278854 -2.866896 11.398226 1.457400 -1.380600 5.015100 0.001752 0.007138 0.001789 -88.311860 1.895662 21.513323 14.529190 -23.472918 -3.027910 0.004005 -0.000153 -0.310510 14.489304 -7.639442 -1.967000 -7.125000 0.000000 0.000000 -8.971000 22.124600 4.991700 -0.006851 -0.006133 0.000947 88.856889 1.550555 17.582035 -11.981235 19.767168 -2.090413 -0.005747 -0.014007 -9.206413 -16.337814 -22.235103 6.323100 7.125000 0.000000 0.000000 12.923800 -52.580300 -2.444000 
